<mxfile host="app.diagrams.net" modified="2022-03-11T16:36:18.692Z" agent="5.0 (Windows NT 10.0; Win64; x64) AppleWebKit/537.36 (KHTML, like Gecko) Chrome/99.0.4844.51 Safari/537.36" etag="QlrNWA_JK-uokO5YmXlG" version="17.1.2" type="github">
  <diagram id="C5RBs43oDa-KdzZeNtuy" name="Page-1">
    <mxGraphModel dx="1944" dy="539" grid="1" gridSize="10" guides="1" tooltips="1" connect="1" arrows="1" fold="1" page="1" pageScale="1" pageWidth="827" pageHeight="1169" math="0" shadow="0">
      <root>
        <mxCell id="WIyWlLk6GJQsqaUBKTNV-0" />
        <mxCell id="WIyWlLk6GJQsqaUBKTNV-1" parent="WIyWlLk6GJQsqaUBKTNV-0" />
        <mxCell id="WIyWlLk6GJQsqaUBKTNV-3" value="Windows" style="rounded=1;whiteSpace=wrap;html=1;fontSize=21;glass=0;strokeWidth=1;shadow=0;fillColor=#dae8fc;strokeColor=#6c8ebf;fontStyle=1;fontFamily=Lucida Console;" parent="WIyWlLk6GJQsqaUBKTNV-1" vertex="1">
          <mxGeometry x="-414" y="920" width="120" height="40" as="geometry" />
        </mxCell>
        <mxCell id="kiM5pF3jl9HwU2nnS3uD-1" value="MacOS" style="rounded=1;whiteSpace=wrap;html=1;fontSize=21;glass=0;strokeWidth=1;shadow=0;fillColor=#fff2cc;strokeColor=#d6b656;fontFamily=Lucida Console;fontStyle=1" parent="WIyWlLk6GJQsqaUBKTNV-1" vertex="1">
          <mxGeometry x="-20" y="940" width="120" height="40" as="geometry" />
        </mxCell>
        <mxCell id="kiM5pF3jl9HwU2nnS3uD-3" value="Linux" style="rounded=1;whiteSpace=wrap;html=1;fontSize=21;glass=0;strokeWidth=1;shadow=0;fontFamily=Lucida Console;fontStyle=1" parent="WIyWlLk6GJQsqaUBKTNV-1" vertex="1">
          <mxGeometry x="580" y="970" width="120" height="40" as="geometry" />
        </mxCell>
        <mxCell id="UsUM8yckjeye1DmzhqTT-13" style="edgeStyle=orthogonalEdgeStyle;rounded=0;orthogonalLoop=1;jettySize=auto;html=1;exitX=0.5;exitY=1;exitDx=0;exitDy=0;entryX=0.5;entryY=0;entryDx=0;entryDy=0;" edge="1" parent="WIyWlLk6GJQsqaUBKTNV-1" source="kiM5pF3jl9HwU2nnS3uD-6" target="kiM5pF3jl9HwU2nnS3uD-71">
          <mxGeometry relative="1" as="geometry" />
        </mxCell>
        <mxCell id="UsUM8yckjeye1DmzhqTT-14" style="edgeStyle=orthogonalEdgeStyle;rounded=0;orthogonalLoop=1;jettySize=auto;html=1;exitX=0.5;exitY=1;exitDx=0;exitDy=0;entryX=0.5;entryY=0;entryDx=0;entryDy=0;" edge="1" parent="WIyWlLk6GJQsqaUBKTNV-1" source="kiM5pF3jl9HwU2nnS3uD-6" target="UsUM8yckjeye1DmzhqTT-0">
          <mxGeometry relative="1" as="geometry" />
        </mxCell>
        <mxCell id="UsUM8yckjeye1DmzhqTT-16" style="edgeStyle=orthogonalEdgeStyle;rounded=0;orthogonalLoop=1;jettySize=auto;html=1;exitX=0;exitY=0.5;exitDx=0;exitDy=0;entryX=1;entryY=0.5;entryDx=0;entryDy=0;" edge="1" parent="WIyWlLk6GJQsqaUBKTNV-1" source="kiM5pF3jl9HwU2nnS3uD-6" target="UsUM8yckjeye1DmzhqTT-2">
          <mxGeometry relative="1" as="geometry" />
        </mxCell>
        <mxCell id="UsUM8yckjeye1DmzhqTT-26" style="edgeStyle=orthogonalEdgeStyle;rounded=0;orthogonalLoop=1;jettySize=auto;html=1;exitX=0;exitY=1;exitDx=0;exitDy=0;entryX=0.5;entryY=0;entryDx=0;entryDy=0;fontFamily=Lucida Console;fontSize=21;" edge="1" parent="WIyWlLk6GJQsqaUBKTNV-1" source="kiM5pF3jl9HwU2nnS3uD-6" target="UsUM8yckjeye1DmzhqTT-20">
          <mxGeometry relative="1" as="geometry">
            <Array as="points">
              <mxPoint x="-130" y="490" />
              <mxPoint x="-130" y="570" />
              <mxPoint x="-615" y="570" />
            </Array>
          </mxGeometry>
        </mxCell>
        <mxCell id="kiM5pF3jl9HwU2nnS3uD-6" value="&lt;b&gt;Sistemas de Ficheiros&lt;/b&gt;" style="shape=process;whiteSpace=wrap;html=1;backgroundOutline=1;fontFamily=Verdana;fillColor=#ffff88;strokeColor=#36393d;" parent="WIyWlLk6GJQsqaUBKTNV-1" vertex="1">
          <mxGeometry y="430" width="120" height="60" as="geometry" />
        </mxCell>
        <mxCell id="kiM5pF3jl9HwU2nnS3uD-10" value="&lt;span&gt;Um sistema de ficheiros é um método que o respetivo sistema operativo usa para organizar os seus dados.&lt;/span&gt;" style="shape=callout;whiteSpace=wrap;html=1;perimeter=calloutPerimeter;fillColor=#fff2cc;strokeColor=#d6b656;gradientColor=#ffd966;" parent="WIyWlLk6GJQsqaUBKTNV-1" vertex="1">
          <mxGeometry x="-50" y="320" width="220" height="100" as="geometry" />
        </mxCell>
        <mxCell id="kiM5pF3jl9HwU2nnS3uD-55" value="" style="curved=1;endArrow=classic;html=1;rounded=0;fontFamily=Verdana;exitX=0.5;exitY=0;exitDx=0;exitDy=0;exitPerimeter=0;entryX=0.5;entryY=1;entryDx=0;entryDy=0;" parent="WIyWlLk6GJQsqaUBKTNV-1" source="kiM5pF3jl9HwU2nnS3uD-10" edge="1" target="kiM5pF3jl9HwU2nnS3uD-58">
          <mxGeometry width="50" height="50" relative="1" as="geometry">
            <mxPoint x="-200" y="135" as="sourcePoint" />
            <mxPoint x="-103.40000000000009" y="158.06999999999994" as="targetPoint" />
            <Array as="points">
              <mxPoint x="90" y="290" />
              <mxPoint x="20" y="270" />
            </Array>
          </mxGeometry>
        </mxCell>
        <mxCell id="kiM5pF3jl9HwU2nnS3uD-58" value="Definição" style="swimlane;fontFamily=Verdana;" parent="WIyWlLk6GJQsqaUBKTNV-1" vertex="1">
          <mxGeometry x="-65" y="90" width="250" height="150" as="geometry">
            <mxRectangle x="550" y="10" width="100" height="23" as="alternateBounds" />
          </mxGeometry>
        </mxCell>
        <mxCell id="kiM5pF3jl9HwU2nnS3uD-61" value="Um sistema de ficheiros organiza-se como uma biblioteca, sendo o sistema operativo o bibliotecário, que vai distribuir os dados pelos espaços vazios do disco. Existem vários formatos diferentes de sistemas de ficheiros, porém nunca podem existir dois sistemas diferentes numa partição." style="whiteSpace=wrap;html=1;fontFamily=Verdana;" parent="kiM5pF3jl9HwU2nnS3uD-58" vertex="1">
          <mxGeometry y="20" width="250" height="130" as="geometry" />
        </mxCell>
        <mxCell id="kiM5pF3jl9HwU2nnS3uD-71" value="FAT" style="swimlane;fontFamily=Verdana;" parent="WIyWlLk6GJQsqaUBKTNV-1" vertex="1">
          <mxGeometry x="-190" y="580" width="230" height="170" as="geometry" />
        </mxCell>
        <mxCell id="kiM5pF3jl9HwU2nnS3uD-72" value="File Allocation Table é um dos mais antigos sistema de ficheiros que está presente na maioria dos computadores pessoais. Este sistema possui as versões FAT8, FAT12, FAT16 e FAT32. O número após o FAT indica a quantidade de bits utilizada na alocação dos ficheiros." style="whiteSpace=wrap;html=1;fontFamily=Verdana;" parent="kiM5pF3jl9HwU2nnS3uD-71" vertex="1">
          <mxGeometry y="20" width="230" height="150" as="geometry" />
        </mxCell>
        <mxCell id="UsUM8yckjeye1DmzhqTT-0" value="exFAT" style="swimlane;fontFamily=Verdana;" vertex="1" parent="WIyWlLk6GJQsqaUBKTNV-1">
          <mxGeometry x="70" y="580" width="230" height="170" as="geometry" />
        </mxCell>
        <mxCell id="UsUM8yckjeye1DmzhqTT-1" value="" style="whiteSpace=wrap;html=1;fontFamily=Verdana;" vertex="1" parent="UsUM8yckjeye1DmzhqTT-0">
          <mxGeometry y="20" width="230" height="150" as="geometry" />
        </mxCell>
        <mxCell id="UsUM8yckjeye1DmzhqTT-2" value="NFTS" style="swimlane;fontFamily=Verdana;startSize=23;" vertex="1" parent="WIyWlLk6GJQsqaUBKTNV-1">
          <mxGeometry x="-480" y="375" width="230" height="170" as="geometry" />
        </mxCell>
        <mxCell id="UsUM8yckjeye1DmzhqTT-3" value="" style="whiteSpace=wrap;html=1;fontFamily=Verdana;" vertex="1" parent="UsUM8yckjeye1DmzhqTT-2">
          <mxGeometry y="20" width="230" height="150" as="geometry" />
        </mxCell>
        <mxCell id="UsUM8yckjeye1DmzhqTT-6" value="" style="endArrow=classic;startArrow=classic;html=1;rounded=0;exitX=0.5;exitY=1;exitDx=0;exitDy=0;entryX=0;entryY=0;entryDx=0;entryDy=0;fillColor=#dae8fc;strokeColor=#6c8ebf;" edge="1" parent="WIyWlLk6GJQsqaUBKTNV-1" source="UsUM8yckjeye1DmzhqTT-2" target="WIyWlLk6GJQsqaUBKTNV-3">
          <mxGeometry width="50" height="50" relative="1" as="geometry">
            <mxPoint x="60" y="810" as="sourcePoint" />
            <mxPoint x="110" y="760" as="targetPoint" />
          </mxGeometry>
        </mxCell>
        <mxCell id="UsUM8yckjeye1DmzhqTT-7" value="" style="endArrow=classic;startArrow=classic;html=1;rounded=0;exitX=0.5;exitY=1;exitDx=0;exitDy=0;entryX=0.5;entryY=0;entryDx=0;entryDy=0;fillColor=#dae8fc;strokeColor=#6c8ebf;" edge="1" parent="WIyWlLk6GJQsqaUBKTNV-1" source="kiM5pF3jl9HwU2nnS3uD-72" target="WIyWlLk6GJQsqaUBKTNV-3">
          <mxGeometry width="50" height="50" relative="1" as="geometry">
            <mxPoint x="-345" y="760" as="sourcePoint" />
            <mxPoint x="-130" y="940" as="targetPoint" />
          </mxGeometry>
        </mxCell>
        <mxCell id="UsUM8yckjeye1DmzhqTT-8" value="" style="endArrow=classic;startArrow=classic;html=1;rounded=0;exitX=0.5;exitY=1;exitDx=0;exitDy=0;entryX=1;entryY=0;entryDx=0;entryDy=0;fillColor=#dae8fc;strokeColor=#6c8ebf;" edge="1" parent="WIyWlLk6GJQsqaUBKTNV-1" source="UsUM8yckjeye1DmzhqTT-0" target="WIyWlLk6GJQsqaUBKTNV-3">
          <mxGeometry width="50" height="50" relative="1" as="geometry">
            <mxPoint x="-65" y="760" as="sourcePoint" />
            <mxPoint x="-80" y="980" as="targetPoint" />
          </mxGeometry>
        </mxCell>
        <mxCell id="UsUM8yckjeye1DmzhqTT-9" value="" style="endArrow=classic;startArrow=classic;html=1;rounded=0;exitX=0.5;exitY=1;exitDx=0;exitDy=0;entryX=0.5;entryY=0;entryDx=0;entryDy=0;fillColor=#fff2cc;strokeColor=#d6b656;" edge="1" parent="WIyWlLk6GJQsqaUBKTNV-1" source="kiM5pF3jl9HwU2nnS3uD-71" target="kiM5pF3jl9HwU2nnS3uD-1">
          <mxGeometry width="50" height="50" relative="1" as="geometry">
            <mxPoint x="225" y="760" as="sourcePoint" />
            <mxPoint x="-320" y="930" as="targetPoint" />
          </mxGeometry>
        </mxCell>
        <mxCell id="UsUM8yckjeye1DmzhqTT-20" value="exFAT" style="swimlane;fontFamily=Verdana;" vertex="1" parent="WIyWlLk6GJQsqaUBKTNV-1">
          <mxGeometry x="-730" y="585" width="230" height="170" as="geometry" />
        </mxCell>
        <mxCell id="UsUM8yckjeye1DmzhqTT-21" value="" style="whiteSpace=wrap;html=1;fontFamily=Verdana;" vertex="1" parent="UsUM8yckjeye1DmzhqTT-20">
          <mxGeometry y="20" width="230" height="150" as="geometry" />
        </mxCell>
      </root>
    </mxGraphModel>
  </diagram>
</mxfile>
